<svg width="120" height="120" viewBox="0 0 120 120" fill="none" xmlns="http://www.w3.org/2000/svg">
<rect width="120" height="120" fill="#1D1D1D"/>
<path d="M0 10C0 4.47715 4.47715 0 10 0H110C115.523 0 120 4.47715 120 10V110C120 115.523 115.523 120 110 120H10C4.47715 120 0 115.523 0 110V10Z" fill="white" fill-opacity="0.8"/>
<path d="M1 10C1 5.02944 5.02944 1 10 1H110C114.971 1 119 5.02944 119 10V110C119 114.971 114.971 119 110 119H10C5.02944 119 1 114.971 1 110V10Z" stroke="white" stroke-opacity="0.8" stroke-width="2"/>
<path d="M35.6562 54.668H41.4802V62.914H35.6562V54.668ZM40.3462 55.606H36.7902V61.976H40.3462V55.606ZM44.1262 53.422H45.2882V66.106H44.1262V53.422ZM57.0331 53.422H58.1951V66.106H57.0331V53.422ZM48.5491 62.088H49.5991C51.7131 62.088 53.6031 62.004 55.8431 61.64L55.9691 62.592C53.6731 62.97 51.7691 63.054 49.5991 63.054H48.5491V62.088ZM48.5211 54.612H54.3731V59.134H49.7111V62.452H48.5491V58.182H53.1971V55.564H48.5211V54.612ZM60.7 63.516H72.166V64.482H60.7V63.516ZM65.824 60.492H66.986V63.796H65.824V60.492ZM62.044 54.332H63.192V56.586H69.646V54.332H70.794V60.8H62.044V54.332ZM63.192 57.524V59.848H69.646V57.524H63.192ZM82.7909 53.436H83.9529V66.092H82.7909V53.436ZM79.0809 54.794H80.2289C80.2289 58.462 78.5769 61.668 74.3489 63.74L73.7329 62.802C77.3869 61.038 79.0809 58.35 79.0809 54.99V54.794ZM74.3069 54.794H79.5849V55.746H74.3069V54.794Z" fill="white"/>
</svg>
