<svg width="120" height="120" viewBox="0 0 120 120" fill="none" xmlns="http://www.w3.org/2000/svg">
<rect width="120" height="120" fill="#1D1D1D"/>
<path d="M0 10C0 4.47715 4.47715 0 10 0H110C115.523 0 120 4.47715 120 10V110C120 115.523 115.523 120 110 120H10C4.47715 120 0 115.523 0 110V10Z" fill="white" fill-opacity="0.8"/>
<path d="M1 10C1 5.02944 5.02944 1 10 1H110C114.971 1 119 5.02944 119 10V110C119 114.971 114.971 119 110 119H10C5.02944 119 1 114.971 1 110V10Z" stroke="white" stroke-opacity="0.8" stroke-width="2"/>
<path d="M73 60C73 60.2873 72.8859 60.5629 72.6827 60.766C72.4795 60.9692 72.204 61.0833 71.9167 61.0833H61.0833V71.9167C61.0833 72.204 60.9692 72.4795 60.766 72.6827C60.5629 72.8859 60.2873 73 60 73C59.7127 73 59.4371 72.8859 59.234 72.6827C59.0308 72.4795 58.9167 72.204 58.9167 71.9167V61.0833H48.0833C47.796 61.0833 47.5205 60.9692 47.3173 60.766C47.1141 60.5629 47 60.2873 47 60C47 59.7127 47.1141 59.4371 47.3173 59.234C47.5205 59.0308 47.796 58.9167 48.0833 58.9167H58.9167V48.0833C58.9167 47.796 59.0308 47.5205 59.234 47.3173C59.4371 47.1141 59.7127 47 60 47C60.2873 47 60.5629 47.1141 60.766 47.3173C60.9692 47.5205 61.0833 47.796 61.0833 48.0833V58.9167H71.9167C72.204 58.9167 72.4795 59.0308 72.6827 59.234C72.8859 59.4371 73 59.7127 73 60Z" fill="#3F3F3F" fill-opacity="0.8"/>
</svg>
