<svg width="151" height="56" viewBox="0 0 151 56" fill="none" xmlns="http://www.w3.org/2000/svg">
<g filter="url(#filter0_d_542_684)">
<path d="M20.4496 31.46C23.7496 31.46 24.8496 29.81 24.8496 27.61C24.8496 20.955 22.3746 7.205 22.3746 7.205L32.6046 8.305C32.6046 8.305 33.9796 20.79 33.9796 28.82C33.9796 38.005 28.3696 40.755 20.4496 40.755C14.5096 40.755 10.1096 38.61 7.57963 33.605L15.0046 26.4C16.2696 29.48 18.0846 31.46 20.4496 31.46ZM47.7797 23.36C44.4597 23.36 42.5797 25.6 42.5797 29.68C42.5797 33.84 44.4597 35.8 47.3397 35.8C49.7797 35.8 50.9797 34.24 50.9797 29.6C50.9797 26.16 50.5797 23.36 47.7797 23.36ZM46.2997 42.12C38.8997 42.12 34.9397 38.28 34.9397 29.64C34.9397 21.76 39.6597 16.96 47.5397 16.96C55.3797 16.96 58.4197 21.52 58.4197 30.72C58.4197 38.72 54.0197 42.12 46.2997 42.12ZM65.6172 32.24L57.2972 18.2L65.9372 17.04L69.3772 26.12L74.0572 17.32L82.6572 18.68L73.0572 32.6L72.4572 42.24L65.2572 41.16L65.6172 32.24ZM82.6854 42L81.4054 18.16L89.0454 17.12L89.5254 40.88L82.6854 42ZM97.2141 28.2L97.1741 41.88L89.6541 42.4L91.6541 16.48L98.2541 17.6L106.174 30.48L106.294 17.12L113.494 16.56L112.094 41.8L105.254 42.92L97.2141 28.2ZM130.547 33.68L124.947 33.16L126.067 27.6L137.987 28.96C137.707 38.44 133.427 41.52 126.107 41.52C118.947 41.52 113.267 37.92 113.267 29.4C113.267 20.64 118.827 16.56 125.587 16.56C132.787 16.56 135.627 19.64 137.547 23.08L130.627 26.8C130.067 24.72 128.547 23.12 126.107 23.12C123.667 23.12 121.067 24.88 121.067 29.4C121.067 33.32 123.467 35.12 126.107 35.12C128.107 35.12 129.867 34.92 130.547 33.68Z" fill="white"/>
</g>
<defs>
<filter id="filter0_d_542_684" x="0.580078" y="0.205017" width="150.406" height="55.715" filterUnits="userSpaceOnUse" color-interpolation-filters="sRGB">
<feFlood flood-opacity="0" result="BackgroundImageFix"/>
<feColorMatrix in="SourceAlpha" type="matrix" values="0 0 0 0 0 0 0 0 0 0 0 0 0 0 0 0 0 0 127 0" result="hardAlpha"/>
<feOffset dx="3" dy="3"/>
<feGaussianBlur stdDeviation="5"/>
<feComposite in2="hardAlpha" operator="out"/>
<feColorMatrix type="matrix" values="0 0 0 0 0 0 0 0 0 0 0 0 0 0 0 0 0 0 0.2 0"/>
<feBlend mode="normal" in2="BackgroundImageFix" result="effect1_dropShadow_542_684"/>
<feBlend mode="normal" in="SourceGraphic" in2="effect1_dropShadow_542_684" result="shape"/>
</filter>
</defs>
</svg>
